<svg xmlns="http://www.w3.org/2000/svg" width="128" height="128" viewBox="0 0 128 128">
<!-- Placeholder body (glossy aero badge) for pike (tempo). Silhouette = role, colour + letter = hero. -->
<defs>
<radialGradient id="aero-body" cx="0.4" cy="0.3" r="0.8">
<stop offset="0" stop-color="#e7a4ea"/><stop offset="0.55" stop-color="#d45ad8"/><stop offset="1" stop-color="#8e47a3"/>
</radialGradient>
<linearGradient id="aero-gloss" x1="0" y1="0" x2="0" y2="1">
<stop offset="0" stop-color="#ffffff" stop-opacity="0.85"/><stop offset="1" stop-color="#ffffff" stop-opacity="0.05"/>
</linearGradient>
<clipPath id="aero-clip"><polygon points="64,6 122,64 64,122 6,64" /></clipPath>
</defs>
<polygon points="64,6 122,64 64,122 6,64" fill="url(#aero-body)" stroke="#16304f" stroke-width="7" stroke-linejoin="round"/>
<ellipse cx="64" cy="36" rx="46" ry="26" fill="url(#aero-gloss)" clip-path="url(#aero-clip)"/>
<ellipse cx="84" cy="100" rx="14" ry="6" fill="#ffffff" fill-opacity="0.3" clip-path="url(#aero-clip)"/>
<path d="M 46.0,86.0 L 46.0,40.0 L 67.6,40.0 Q 82.0,40.0 82.0,52.9 Q 82.0,65.8 67.6,65.8 L 46.0,65.8" fill="none" stroke="#16304f" stroke-width="16" stroke-linecap="round" stroke-linejoin="round"/>
<path d="M 46.0,86.0 L 46.0,40.0 L 67.6,40.0 Q 82.0,40.0 82.0,52.9 Q 82.0,65.8 67.6,65.8 L 46.0,65.8" fill="none" stroke="#ffffff" stroke-width="8" stroke-linecap="round" stroke-linejoin="round"/>
</svg>
